PathFileType	4	(X/Y/Z)	/Users/visionmauri/Downloads/Videos/OAW03-top_Sports2D/OAW03-top_Sports2D_px_person00.trc
DataRate	CameraRate	NumFrames	NumMarkers	Units	OrigDataRate	OrigDataStartFrame	OrigNumFrames
30.0	30.0	6	22	m	30.0	0	2146
Frame#	Time	Hip			RHip			RKnee			RAnkle			RBigToe			RSmallToe			RHeel			LHip			LKnee			LAnkle			LBigToe			LSmallToe			LHeel			Neck			Head			Nose			RShoulder			RElbow			RWrist			LShoulder			LElbow			LWrist			
		X1	Y1	Z1	X2	Y2	Z2	X3	Y3	Z3	X4	Y4	Z4	X5	Y5	Z5	X6	Y6	Z6	X7	Y7	Z7	X8	Y8	Z8	X9	Y9	Z9	X10	Y10	Z10	X11	Y11	Z11	X12	Y12	Z12	X13	Y13	Z13	X14	Y14	Z14	X15	Y15	Z15	X16	Y16	Z16	X17	Y17	Z17	X18	Y18	Z18	X19	Y19	Z19	X20	Y20	Z20	X21	Y21	Z21	X22	Y22	Z22
0	0.0	516.2710144833623	586.6284881101354	0.0	503.7152311255278	589.2718606319996	0.0	499.08941859685905	632.2257724842414	0.0	501.7327425176776	672.5363413874343	0.0	501.73274438600305	686.4138220448698	0.0	495.78527438172864	685.0921626468889	0.0	503.7152259197854	677.822929978076	0.0	528.165927570332	589.271860649463	0.0	529.4875756706175	632.8865562088122	0.0	528.1659580774971	673.1972564839862	0.0	526.8442164474437	687.0745907064834	0.0	533.4525646106566	685.7529388320822	0.0	526.183439757294	678.4839066951922	0.0	516.2710048764003	513.276533948792	0.0	516.2709756667085	477.5917983893073	0.0	516.2710305048623	503.3642284378926	0.0	494.46370402203115	520.545639189712	0.0	486.5336616977977	558.2128906074964	0.0	485.2120785977117	589.2718320911296	0.0	538.0783350928862	520.5455881576282	0.0	546.0083088799698	558.2129090585864	0.0	547.9907513997746	589.9326789641676	0.0
1	0.03334887334887335	516.3489667246237	586.674829254127	0.0	503.99458621825966	589.0863160974626	0.0	499.20023432098765	632.2282324154072	0.0	501.5558242833375	672.5259271964993	0.0	501.80913009170666	686.2300558142222	0.0	495.92527368938033	684.9789385137384	0.0	503.328497386477	677.9518964328831	0.0	528.1444575104093	589.1404616086879	0.0	529.4534331848439	632.6699917601564	0.0	528.1444946775259	673.4087210026989	0.0	527.0722658917448	687.0949096066676	0.0	533.5953906628963	685.8392060662839	0.0	526.1860052081993	678.6070509010323	0.0	516.1833841405846	513.2579240197791	0.0	516.3792472349058	477.5086150375481	0.0	516.454527675137	502.9021103511472	0.0	494.1868873259087	520.4407919193012	0.0	486.5522924874664	558.1626913908115	0.0	485.2264327468461	589.2583431264501	0.0	538.200736979467	520.6990669635111	0.0	546.0086159269491	558.1633475722498	0.0	548.0221937049731	589.9698030507527	0.0
2	0.0666977466977467	516.3422078006438	586.7779635660335	0.0	504.22525513989353	588.8454352631388	0.0	499.26058538332103	632.1923739899424	0.0	501.3793800965897	672.4899835641215	0.0	501.85812715421673	686.0748362301964	0.0	495.88732799313897	684.9722728096228	0.0	502.9906352409173	677.991339837753	0.0	528.128635120303	589.0103605836981	0.0	529.4133392125785	632.612482215592	0.0	528.128549463755	673.6461104576852	0.0	527.2890148899563	687.2106983068841	0.0	533.7542406194151	686.0958669186273	0.0	526.2040253684274	678.6778956634846	0.0	516.0653715691974	513.2460925357772	0.0	516.3381298729842	477.44960291090695	0.0	516.4865658574992	502.5775621676429	0.0	494.03891900178303	520.3693583078908	0.0	486.55557864358843	558.1225801924668	0.0	485.2476069700247	589.3374368017686	0.0	538.2730138570192	520.8301756672456	0.0	546.0070289552424	558.102915438531	0.0	547.9793345644136	589.9654153003161	0.0
3	0.10004662004662004	516.2625176149122	586.9311395487076	0.0	504.2727663437547	588.6440398647669	0.0	499.1916133249025	632.1137731636195	0.0	501.2998745404139	672.434266347868	0.0	501.8104202578489	686.0277888126484	0.0	495.628408848085	685.0339585211048	0.0	502.86643769683803	677.9112122805361	0.0	528.1291377155782	588.884940187866	0.0	529.3841527843808	632.750737526659	0.0	528.1287862649452	673.7763463403966	0.0	527.3914388191741	687.4139881911599	0.0	533.8692602770991	686.4154033350007	0.0	526.227084631287	678.6546783732778	0.0	515.9083630799447	513.3004730216306	0.0	516.1018567561941	477.55257187753415	0.0	516.1999342662991	502.71557623839243	0.0	494.06821759241944	520.4151129680283	0.0	486.5065943231671	558.1095550644823	0.0	485.2834566371036	589.5909568192066	0.0	538.1923869370784	520.8603363275969	0.0	546.0043080305686	558.019115110942	0.0	547.7448652277982	589.9012705951872	0.0
4	0.1333954933954934	516.1843912871857	587.0728485445178	0.0	504.19477134059616	588.6393195111817	0.0	499.02548090776395	632.0888670860102	0.0	501.35416544599195	672.401697112477	0.0	501.6643479685155	686.0793423972194	0.0	495.4122146115031	685.0232331711195	0.0	503.05633911880295	677.8151813770266	0.0	528.1449173142818	588.873381030263	0.0	529.3875172442949	632.8838823751288	0.0	528.1446915199259	673.7014698436878	0.0	527.3529323137246	687.562386029203	0.0	533.9099233576177	686.5700593967636	0.0	526.1899486079221	678.5760947950838	0.0	515.7135743937581	513.444063837504	0.0	515.791577101922	477.85634890207564	0.0	515.7268150593633	503.1054437924707	0.0	494.09576636360316	520.565159813479	0.0	486.3812400048714	558.1317172729526	0.0	485.3125732751267	589.975376471062	0.0	537.9738534641745	520.7854275393344	0.0	546.0084026017643	557.8757806279253	0.0	547.3420879387427	589.8430612849144	0.0
5	0.16674436674436674	516.1390832728534	587.1873618149315	0.0	504.1809483010621	588.8575370694293	0.0	498.8896095641899	632.2288655560889	0.0	501.43786837998545	672.3798476085065	0.0	501.5565450994275	686.1446258329495	0.0	495.5086476017936	684.9410675635071	0.0	503.4612989632617	677.8083371488406	0.0	528.1751340373703	589.0950608848117	0.0	529.4285211724336	632.849273238753	0.0	528.1765027397752	673.5343867577344	0.0	527.237458033453	687.5686885089688	0.0	533.923630164852	686.5595388972553	0.0	526.0326703933458	678.525883768268	0.0	515.5541353540933	513.5075083610266	0.0	515.5461088715375	478.07621758459817	0.0	515.4154918362277	503.09488219402925	0.0	493.9738578236783	520.6815668668406	0.0	486.22674521674713	558.1483539380719	0.0	485.27983006674685	590.2776649711212	0.0	537.7767106430543	520.6984405596688	0.0	546.0251088105973	557.6728370888047	0.0	547.0657069003174	589.8271830392707	0.0
